Coordinates
version=1
nRows=7
nColumns=40
inDegrees=yes

Units are S.I. units (second, meters, Newtons, ...)
Angles are in degrees.

endheader
time	pelvis_tilt	pelvis_list	pelvis_rotation	pelvis_tx	pelvis_ty	pelvis_tz	hip_flexion_r	hip_adduction_r	hip_rotation_r	knee_angle_r	knee_angle_r_beta	ankle_angle_r	subtalar_angle_r	mtp_angle_r	hip_flexion_l	hip_adduction_l	hip_rotation_l	knee_angle_l	knee_angle_l_beta	ankle_angle_l	subtalar_angle_l	mtp_angle_l	lumbar_extension	lumbar_bending	lumbar_rotation	arm_flex_r	arm_add_r	arm_rot_r	elbow_flex_r	pro_sup_r	wrist_flex_r	wrist_dev_r	arm_flex_l	arm_add_l	arm_rot_l	elbow_flex_l	pro_sup_l	wrist_flex_l	wrist_dev_l
     36.24000000	     -3.41391411	     -5.18482305	      2.12440423	      1.04613228	      0.93000651	      0.39238545	     29.07731086	     -5.33772204	     -6.62421836	     65.69265641	     65.69265641	      0.05852005	    -14.12827811	      0.16666953	     18.12427869	     -7.19046811	     -7.50338709	     24.77490112	     24.77490112	     12.08162607	    -11.75586678	      0.02235767	    -10.93851993	      3.93255197	      2.27410084	     13.42227541	    -11.62197915	      2.37886061	     43.18808697	     45.53381552	      0.00000000	      0.00000000	      6.13046509	    -17.92419905	     -0.97804872	     53.14037443	     45.97997890	      0.00000000	      0.00000000
     36.25300000	     -3.42470101	     -5.39948767	      1.57160787	      1.04564379	      0.93088959	      0.39251840	     29.83926743	     -5.10458543	     -6.64815859	     64.30459609	     64.30459609	      0.01421741	    -13.87528001	      0.11639900	     17.43494104	     -7.47173518	     -7.79339220	     24.32058058	     24.32058058	     12.25502846	    -11.93139626	      0.05681333	    -11.08181502	      4.18898612	      2.57526540	     12.07443639	    -11.93113326	      2.23911282	     41.77920541	     45.58766242	      0.00000000	      0.00000000	      6.51075093	    -18.13914244	     -1.08578768	     54.10531893	     46.01494557	      0.00000000	      0.00000000
     36.26600000	     -3.43524321	     -5.61321345	      1.03465695	      1.04520448	      0.93175467	      0.39267780	     30.46160671	     -4.83735790	     -6.71245105	     62.68772937	     62.68772937	     -0.04421310	    -13.64247299	      0.04070625	     16.73827549	     -7.75939795	     -8.17816561	     23.85828508	     23.85828508	     12.38587439	    -12.02709450	      0.00494584	    -11.18696171	      4.45102514	      2.78909920	     10.95496943	    -12.13388509	      1.85366608	     39.90564819	     45.67480195	      0.00000000	      0.00000000	      6.70542986	    -18.41870034	     -1.13714047	     55.50153505	     46.05091406	      0.00000000	      0.00000000
     36.27900000	     -3.50260933	     -5.81662836	      0.53666332	      1.04472229	      0.93245687	      0.39284064	     31.04007110	     -4.59120429	     -6.84151729	     60.87070847	     60.87070847	     -0.07029805	    -13.32235402	      0.06370319	     16.14005060	     -8.02412017	     -8.53571165	     23.44112723	     23.44112723	     12.51774034	    -12.12420104	     -0.04279154	    -11.23027032	      4.72482231	      2.77957872	      9.94286499	    -12.26156732	      1.48514311	     38.35126441	     45.75008219	      0.00000000	      0.00000000	      6.77081838	    -18.81044606	     -1.23903046	     56.58677775	     46.08260548	      0.00000000	      0.00000000
     36.29200000	     -3.64432291	     -5.97047592	      0.00524062	      1.04420836	      0.93286832	      0.39311784	     31.63221702	     -4.34050835	     -6.89166464	     58.87016200	     58.87016200	     -0.04478950	    -12.87517037	      0.17417891	     15.66393943	     -8.23649876	     -8.86941186	     23.11330614	     23.11330614	     12.70448081	    -12.25632544	     -0.07030674	    -11.20014595	      4.93484154	      2.66740170	      8.81099173	    -12.40975682	      1.28881978	     37.30434136	     45.79513701	      0.00000000	      0.00000000	      6.89579421	    -19.35457642	     -1.43110851	     57.22320488	     46.11143322	      0.00000000	      0.00000000
     36.30500000	     -3.60025485	     -6.03036829	     -0.54164170	      1.04381915	      0.93356715	      0.39342633	     31.83780719	     -4.14531135	     -6.91326613	     56.47552708	     56.47552708	     -0.10682607	    -12.44165454	     -0.24799998	     14.85478903	     -8.36374050	     -9.43492274	     22.56909989	     22.56909989	     12.74049588	    -12.22162679	     -0.47879499	    -11.43580478	      4.94889902	      2.91983419	      8.66771432	    -12.29378725	     -0.21974092	     33.36266497	     46.04523636	      0.00000000	      0.00000000	      6.53204278	    -19.74443813	     -1.54312985	     60.44271748	     46.18516199	      0.00000000	      0.00000000
     36.31800000	     -3.73175080	     -6.17851342	     -0.98931396	      1.04336894	      0.93390094	      0.39372288	     32.01378150	     -3.86552474	     -7.04858236	     53.62603079	     53.62603079	     -0.44335019	    -11.99439357	     -1.71327442	     14.32836038	     -8.53267840	     -9.69561482	     22.10703902	     22.10703902	     12.61137843	    -12.48169237	     -1.12086893	    -11.40940593	      5.19079313	      1.88016350	      9.72618806	    -11.33551412	     -4.54879997	     28.62023497	     46.52860483	      0.00000000	      0.00000000	      5.33291938	    -20.34434611	     -3.06329899	     62.67898080	     46.42357104	      0.00000000	      0.00000000
